<?xml version="1.0" encoding="UTF-8"?>
<svg version="1.1" xmlns="http://www.w3.org/2000/svg" width="745" height="745">
<path d="M0 0 C245.85 0 491.7 0 745 0 C745 245.85 745 491.7 745 745 C499.15 745 253.3 745 0 745 C0 499.15 0 253.3 0 0 Z " fill="#173C6D" transform="translate(0,0)"/>
<path d="M0 0 C15.60372244 -0.04682221 31.20742575 -0.08203877 46.8112011 -0.10362434 C54.05710073 -0.11391547 61.30295659 -0.1279342 68.54882812 -0.15087891 C74.86792822 -0.17087929 81.1869966 -0.18373214 87.50612748 -0.18817699 C90.84880856 -0.19077318 94.19132741 -0.19789592 97.53399277 -0.21146011 C101.27515737 -0.22603396 105.01613567 -0.22797545 108.75732422 -0.22705078 C110.40055412 -0.23783661 110.40055412 -0.23783661 112.07698059 -0.24884033 C122.00255247 -0.22239423 130.72213508 1.63951752 140 5.0625 C140.74894531 5.33126953 141.49789062 5.60003906 142.26953125 5.87695312 C147.61906453 7.80953226 147.61906453 7.80953226 150 9 C150 9.66 150 10.32 150 11 C151.07314453 11.38285156 151.07314453 11.38285156 152.16796875 11.7734375 C167.70299699 18.5017118 179.63761066 33.69944432 186 49 C192.68159046 68.05490611 194.01221183 88.20772134 186 107 C185.31685041 108.99443001 184.64492889 110.99288486 184 113 C183.34 113 182.68 113 182 113 C182 114.32 182 115.64 182 117 C181.34 117 180.68 117 180 117 C179.77699219 117.71027344 179.55398438 118.42054688 179.32421875 119.15234375 C177.19767185 123.72536053 173.53874982 126.83015577 170.01953125 130.37890625 C167.81178766 132.7241668 167.81178766 132.7241668 167.91015625 135.08203125 C169.40221218 137.70783577 171.28994776 139.21322007 173.625 141.125 C181.39721481 147.89793005 186.18820898 155.50614665 190 165 C190.804375 166.7325 190.804375 166.7325 191.625 168.5 C199.44287333 188.4000412 197.30030186 212.6504217 189 232 C178.87176477 250.96069101 163.13022295 265.65745561 143.0234375 273.40625 C141 274 141 274 138 274 C138 274.66 138 275.32 138 276 C127.51406143 277.68739241 117.61951694 278.18795605 107 278 C107 287.9 107 297.8 107 308 C109.74570312 307.94199219 112.49140625 307.88398437 115.3203125 307.82421875 C117.99118158 307.78518118 120.66201841 307.75484636 123.33300781 307.7253418 C125.18373938 307.70025755 127.03437247 307.66618155 128.88476562 307.62280273 C131.55102883 307.56188005 134.21597825 307.53373009 136.8828125 307.51171875 C138.11597702 307.47300911 138.11597702 307.47300911 139.37405396 307.43351746 C143.54448175 307.43149917 146.20114947 307.7253638 149.5222168 310.37426758 C152 313 152 313 152.76171875 315.5 C152.73722656 316.325 152.71273437 317.15 152.6875 318 C152.69136719 318.825 152.69523438 319.65 152.69921875 320.5 C151.65873516 324.2201648 150.03580979 325.62072015 147 328 C143.86988773 328.73559854 140.8117214 328.69393284 137.60742188 328.6628418 C136.66862686 328.67320969 135.72983185 328.68357758 134.7625885 328.69425964 C131.66419569 328.72132965 128.56721824 328.71166837 125.46875 328.69921875 C123.31310633 328.70512718 121.15746595 328.71237369 119.00183105 328.72090149 C114.48590996 328.732782 109.97048173 328.72607294 105.45458984 328.70678711 C99.66695067 328.68389498 93.88077904 328.71068393 88.09328461 328.75184917 C83.64253761 328.77742086 79.19214207 328.77484903 74.74134827 328.76395607 C72.60749479 328.76246885 70.47361444 328.77016543 68.33982849 328.78720665 C65.35650529 328.80716555 62.37578134 328.78880375 59.39257812 328.76049805 C58.51138809 328.77421448 57.63019806 328.78793091 56.7223053 328.80206299 C50.88419165 328.69133064 50.88419165 328.69133064 48.33375549 326.69719887 C45.80519182 323.7712612 44.30535767 321.33050619 44.375 317.4375 C44.36210937 316.71433594 44.34921875 315.99117187 44.3359375 315.24609375 C45.37829227 311.72048203 47.13734009 310.27423846 50 308 C52.94681443 307.32731989 55.79110528 307.41528312 58.80078125 307.51171875 C59.63715622 307.51879349 60.47353119 307.52586823 61.33525085 307.53315735 C63.99526052 307.56105015 66.65313139 307.62377519 69.3125 307.6875 C71.12041221 307.71258966 72.92835757 307.73540167 74.73632812 307.75585938 C79.15903008 307.80660171 83.57713411 307.90445081 88 308 C88 298.1 88 288.2 88 278 C84.7 278 81.4 278 78 278 C75.75680378 277.33651943 73.51059068 276.6677509 71.32421875 275.8359375 C68.86276915 274.95064302 66.42456526 274.39246019 63.875 273.8125 C51.70555018 270.52299886 41.22411624 263.41065088 32 255 C31.23300781 254.32582031 30.46601563 253.65164063 29.67578125 252.95703125 C17.00455656 241.17035977 6.92173522 223.84835769 2.875 207.0625 C2.70613281 206.39798828 2.53726562 205.73347656 2.36328125 205.04882812 C0.54090021 197.65168304 -0.15105491 190.39875493 -0.12025452 182.78686523 C-0.12110894 182.00007133 -0.12196337 181.21327744 -0.12284368 180.4026413 C-0.12447999 177.787935 -0.11900763 175.17329405 -0.11352539 172.55859375 C-0.11324309 170.67566428 -0.11340208 168.7927347 -0.1139679 166.9098053 C-0.11425421 161.81332444 -0.10838429 156.71686722 -0.10139394 151.62039185 C-0.09513278 146.28859579 -0.09455442 140.95679916 -0.09336853 135.625 C-0.09026336 125.53525212 -0.08206094 115.44551511 -0.07201904 105.35577202 C-0.06083263 93.86608468 -0.05534108 82.37639682 -0.05032361 70.8867054 C-0.03987765 47.25779758 -0.02229397 23.6288994 0 0 Z " fill="#F6F8F9" transform="translate(277,221)"/>
<path d="M0 0 C0.69996094 0.4434375 1.39992188 0.886875 2.12109375 1.34375 C3.14074219 1.9109375 4.16039062 2.478125 5.2109375 3.0625 C14.90657897 8.50404908 14.90657897 8.50404908 17.12109375 11.34375 C17.12109375 12.33375 17.12109375 13.32375 17.12109375 14.34375 C16.445625 14.36953125 15.77015625 14.3953125 15.07421875 14.421875 C9.50751436 14.74572482 9.50751436 14.74572482 4.49609375 16.96875 C2.56746177 20.30002342 2.64779109 22.55732869 3.12109375 26.34375 C4.22900962 28.60491573 4.22900962 28.60491573 6.12109375 30.34375 C8.62183549 30.98445996 8.62183549 30.98445996 11.4453125 30.953125 C12.98735352 31.00146484 12.98735352 31.00146484 14.56054688 31.05078125 C15.63240234 31.06496094 16.70425781 31.07914062 17.80859375 31.09375 C19.4337793 31.13822266 19.4337793 31.13822266 21.09179688 31.18359375 C23.76782692 31.25432582 26.44446572 31.30129753 29.12109375 31.34375 C29.12109375 37.28375 29.12109375 43.22375 29.12109375 49.34375 C27.49558594 49.38113281 25.87007813 49.41851562 24.1953125 49.45703125 C22.06638279 49.52268106 19.93747758 49.58912874 17.80859375 49.65625 C16.73673828 49.67880859 15.66488281 49.70136719 14.56054688 49.72460938 C13.53251953 49.76005859 12.50449219 49.79550781 11.4453125 49.83203125 C10.49744873 49.85821533 9.54958496 49.88439941 8.57299805 49.91137695 C5.72588101 50.4134425 4.79718166 51.01880952 3.12109375 53.34375 C2.70251699 56.62260127 2.70056228 58.58322353 4.31176758 61.49707031 C6.71139924 63.94624234 8.05739394 63.87825387 11.4453125 63.953125 C12.98735352 64.00146484 12.98735352 64.00146484 14.56054688 64.05078125 C15.63240234 64.06496094 16.70425781 64.07914062 17.80859375 64.09375 C19.4337793 64.13822266 19.4337793 64.13822266 21.09179688 64.18359375 C23.76782692 64.25432582 26.44446572 64.30129753 29.12109375 64.34375 C29.12109375 70.28375 29.12109375 76.22375 29.12109375 82.34375 C27.49558594 82.38113281 25.87007813 82.41851562 24.1953125 82.45703125 C22.06638279 82.52268106 19.93747758 82.58912874 17.80859375 82.65625 C16.73673828 82.67880859 15.66488281 82.70136719 14.56054688 82.72460938 C13.53251953 82.76005859 12.50449219 82.79550781 11.4453125 82.83203125 C10.49744873 82.85821533 9.54958496 82.88439941 8.57299805 82.91137695 C5.71598712 83.4151872 4.78448546 83.99276393 3.12109375 86.34375 C2.73296414 89.90160474 2.5792952 92.33814671 4.2980957 95.52832031 C6.75835607 97.97836666 8.23056939 97.88045848 11.6640625 97.953125 C13.2737793 98.00146484 13.2737793 98.00146484 14.91601562 98.05078125 C16.5953418 98.07205078 16.5953418 98.07205078 18.30859375 98.09375 C19.43974609 98.12339844 20.57089844 98.15304687 21.73632812 98.18359375 C24.53086441 98.2543415 27.32598435 98.30130339 30.12109375 98.34375 C30.12109375 104.28375 30.12109375 110.22375 30.12109375 116.34375 C28.42339844 116.38113281 26.72570312 116.41851562 24.9765625 116.45703125 C22.75388375 116.52267999 20.53122849 116.5891277 18.30859375 116.65625 C17.18904297 116.67880859 16.06949219 116.70136719 14.91601562 116.72460938 C13.84287109 116.76005859 12.76972656 116.79550781 11.6640625 116.83203125 C10.6743042 116.85821533 9.6845459 116.88439941 8.66479492 116.91137695 C5.76516664 117.40424975 4.82579674 117.98273636 3.12109375 120.34375 C2.75895807 122.85664675 2.75895807 122.85664675 2.93359375 125.53125 C2.96066406 126.43230469 2.98773438 127.33335937 3.015625 128.26171875 C3.06783203 129.29232422 3.06783203 129.29232422 3.12109375 130.34375 C6.10477101 131.33830909 8.32151295 131.53934632 11.4453125 131.66015625 C12.47333984 131.70205078 13.50136719 131.74394531 14.56054688 131.78710938 C15.63240234 131.82642578 16.70425781 131.86574219 17.80859375 131.90625 C19.4337793 131.97102539 19.4337793 131.97102539 21.09179688 132.03710938 C23.7680776 132.14321742 26.44456886 132.24399055 29.12109375 132.34375 C29.12109375 135.97375 29.12109375 139.60375 29.12109375 143.34375 C28.46109375 143.34375 27.80109375 143.34375 27.12109375 143.34375 C27.12109375 144.271875 27.12109375 145.2 27.12109375 146.15625 C25.88295626 154.65124887 17.98436345 162.22650422 11.69140625 167.5546875 C-0.60168825 176.11127912 -13.58337824 177.94768779 -28.125 175.8828125 C-39.28034264 173.19287172 -48.38342992 165.80599722 -54.87890625 156.46875 C-55.87890625 154.34375 -55.87890625 154.34375 -55.87890625 152.34375 C-56.53890625 152.34375 -57.19890625 152.34375 -57.87890625 152.34375 C-61.06419565 144.83640001 -62.46546204 138.47201455 -62.39648438 130.33959961 C-62.40349365 129.30067062 -62.41050293 128.26174164 -62.41772461 127.19132996 C-62.43518053 123.79263758 -62.4237265 120.39479304 -62.41015625 116.99609375 C-62.41285451 114.61438336 -62.4167397 112.23267405 -62.42175293 109.85096741 C-62.42763104 104.87408904 -62.41913847 99.89749899 -62.40039062 94.9206543 C-62.37759014 88.56003111 -62.39074257 82.20008275 -62.41468048 75.83948421 C-62.42917329 70.92622341 -62.42451663 66.01312114 -62.41416931 61.09985542 C-62.41151232 58.75523358 -62.41473537 56.41059706 -62.42408752 54.06599236 C-62.43431168 50.78311199 -62.41866966 47.50130671 -62.39648438 44.21850586 C-62.4045813 43.26186035 -62.41267822 42.30521484 -62.42102051 41.31958008 C-62.28924716 30.72823829 -57.9882387 22.75247406 -51.87890625 14.34375 C-51.01265625 13.044375 -51.01265625 13.044375 -50.12890625 11.71875 C-38.31913066 -0.74712423 -16.22755563 -9.14228486 0 0 Z " fill="#183D6D" transform="translate(389.87890625,273.65625)"/>
<path d="M0 0 C12.64887253 -0.09308674 25.29766223 -0.16396022 37.94680882 -0.20724869 C43.82167814 -0.22803537 49.69631141 -0.2561886 55.57104492 -0.30175781 C61.25099412 -0.34553543 66.93071766 -0.36920401 72.61082268 -0.37950897 C74.76713546 -0.38684343 76.92343728 -0.40116422 79.07965279 -0.42292023 C101.44582975 -0.63941441 119.34886637 3.05369295 135.8125 19.1875 C136.31031982 19.67412109 136.80813965 20.16074219 137.32104492 20.66210938 C140.39571284 23.86405349 141.90160503 26.7143549 143 31 C143.66 31 144.32 31 145 31 C145.62726108 32.54074808 146.2516901 34.08264923 146.875 35.625 C147.22304688 36.48351562 147.57109375 37.34203125 147.9296875 38.2265625 C148.45949219 39.59941406 148.45949219 39.59941406 149 41 C149.36351562 41.87527344 149.72703125 42.75054687 150.1015625 43.65234375 C153.8320867 57.55260133 151.77366615 72.5045782 145 85 C144.52433594 85.886875 144.04867187 86.77375 143.55859375 87.6875 C142.25 89.9375 142.25 89.9375 140 93 C139.34 93 138.68 93 138 93 C137.97812622 91.75295288 137.97812622 91.75295288 137.95581055 90.48071289 C137.89424628 87.35485807 137.82000343 84.22961631 137.73754883 81.10424805 C137.68849065 79.10291389 137.65366863 77.10124694 137.61914062 75.09960938 C137.4391227 68.6025987 137.15087501 62.87151286 134.63208008 56.82983398 C134 55 134 55 134 51 C133.34 51 132.68 51 132 51 C131.443125 49.515 131.443125 49.515 130.875 48 C124.253213 32.69289239 109.50699857 22.69490248 94.51171875 16.69140625 C77.42770302 11.98865231 60.06988905 14.89859349 44.6875 23.125 C30.47257257 32.09371269 20.7164449 45.59849938 17 62 C16.74222212 62.91765263 16.74222212 62.91765263 16.4792366 63.85384369 C15.97491321 66.11234571 15.86858049 68.11199662 15.85955811 70.42443848 C15.85384796 71.30449554 15.84813782 72.18455261 15.84225464 73.09127808 C15.84113678 74.04922272 15.84001892 75.00716736 15.83886719 75.99414062 C15.83390228 77.0093277 15.82893738 78.02451477 15.82382202 79.07046509 C15.80920726 82.43240029 15.80239776 85.79428823 15.796875 89.15625 C15.79112081 91.49833171 15.78536311 93.84041342 15.77960205 96.18249512 C15.76909251 101.09855366 15.76325025 106.01459586 15.75976562 110.93066406 C15.75429607 117.20707857 15.73030065 123.48327448 15.70179367 129.75962067 C15.6830945 134.60173149 15.67795771 139.44379058 15.67642975 144.28593445 C15.67341662 146.59821257 15.66543374 148.91049007 15.65224457 151.22273254 C15.53394608 173.56607438 18.56297881 190.95748424 34.01953125 208.0859375 C39.73524063 213.60999587 46.67976375 217.93571506 54 221 C54.66515625 221.2990625 55.3303125 221.598125 56.015625 221.90625 C70.6406705 227.42899445 88.2323815 224.39017497 102.23828125 218.6796875 C116.99647545 211.81628334 128.05013156 200.2363365 134 185 C137.56367978 174.56641699 137.54589668 164.13817458 137.6875 153.25 C137.72074447 151.47393429 137.75524046 149.69789154 137.79101562 147.921875 C137.875093 143.61471196 137.94228054 139.30759357 138 135 C138.66 135 139.32 135 140 135 C145.46380479 140.66485389 149.19233555 146.7082501 152 154 C152.556875 155.19625 153.11375 156.3925 153.6875 157.625 C159.1022529 171.54865031 156.56327773 188.55271306 150.9375 202 C144.64148599 216.2081886 134.61632713 225.31708626 121 232.3125 C120.02148071 232.81946411 120.02148071 232.81946411 119.02319336 233.33666992 C109.03866608 238.24625755 99.21864172 238.3172231 88.28198242 238.26074219 C85.83551806 238.25010013 83.38980027 238.26063793 80.94335938 238.2734375 C58.34681185 238.29446207 40.31484715 234.27197708 23.34375 218.375 C19.51719683 214.49742612 16.16403236 210.4322875 13 206 C12.39285156 205.16597656 11.78570312 204.33195313 11.16015625 203.47265625 C-2.28590969 182.965199 -0.82764331 158.49137262 -0.60836363 135.03752947 C-0.57037379 130.27575487 -0.56729383 125.51394745 -0.56021118 120.75204468 C-0.54170204 111.77107345 -0.49265757 102.79055033 -0.43211424 93.80977476 C-0.36461044 83.57010352 -0.33195077 73.33040875 -0.30194163 63.09056973 C-0.239543 42.06013153 -0.13428468 21.03009421 0 0 Z " fill="#1A3F6E" transform="translate(297,241)"/>
<path d="M0 0 C0.66 0.33 1.32 0.66 2 1 C2 1.99 2 2.98 2 4 C-2.62 4.33 -7.24 4.66 -12 5 C-11.34 4.01 -10.68 3.02 -10 2 C-7.6171875 1.70703125 -7.6171875 1.70703125 -4.875 1.8125 C-3.96492188 1.83957031 -3.05484375 1.86664063 -2.1171875 1.89453125 C-1.41851562 1.92933594 -0.71984375 1.96414063 0 2 C0 1.34 0 0.68 0 0 Z " fill="#ABB9C9" transform="translate(407,286)"/>
<path d="M0 0 C0.66 0.33 1.32 0.66 2 1 C-0.64 3.64 -3.28 6.28 -6 9 C-6.66 8.67 -7.32 8.34 -8 8 C-5.33333333 5.33333333 -2.66666667 2.66666667 0 0 Z " fill="#44668E" transform="translate(347,279)"/>
</svg>
