<?xml version="1.0" encoding="UTF-8"?>
<svg version="1.1" xmlns="http://www.w3.org/2000/svg" width="658" height="658">
<path d="M0 0 C217.14 0 434.28 0 658 0 C658 217.14 658 434.28 658 658 C440.86 658 223.72 658 0 658 C0 440.86 0 223.72 0 0 Z " fill="#173D6E" transform="translate(0,0)"/>
<path d="M0 0 C18.79422019 -0.07027768 37.58841348 -0.12307968 56.38273811 -0.15543652 C65.11050959 -0.1708639 73.83819911 -0.19187386 82.56591797 -0.22631836 C90.17859578 -0.2563478 97.79121421 -0.27560496 105.40394962 -0.28226548 C109.42976609 -0.28615495 113.45541276 -0.29520817 117.48117447 -0.31719017 C121.28147255 -0.33777013 125.08153319 -0.3437911 128.88188171 -0.33932304 C130.91887465 -0.34052347 132.95584258 -0.35655173 134.99276733 -0.3732605 C163.09142913 -0.28038754 188.06745419 11.64867765 208 31 C214.8274525 37.92400233 221.8674475 46.09742557 223 56 C223.66 56 224.32 56 225 56 C228.63119391 65.99411169 231.92575657 75.24955104 232 86 C232.05607422 87.46179688 232.05607422 87.46179688 232.11328125 88.953125 C232.43890469 102.59503341 232.70152164 122.88138901 224 134 C223.27648573 135.98014432 222.59734611 137.97821315 222 140 C221.34 140 220.68 140 220 140 C219.78214844 140.67804688 219.56429687 141.35609375 219.33984375 142.0546875 C217.59742565 145.88495935 215.19442165 148.86512312 212.5625 152.125 C211.82676758 153.05505859 211.82676758 153.05505859 211.07617188 154.00390625 C208.83261314 156.81970871 206.58173959 159.48479766 204 162 C205.48692463 165.62841934 207.49790966 167.46267552 210.5 169.9375 C224.95701191 182.70473129 235.65693497 200.93750614 237.75 220.3125 C237.86477279 222.54026922 237.94162409 224.7700402 238 227 C238.03109863 227.83966309 238.06219727 228.67932617 238.09423828 229.54443359 C238.46896196 240.50557198 238.40719756 251.15048448 236.25 261.9375 C236.01470581 263.11505859 236.01470581 263.11505859 235.7746582 264.31640625 C234.68927666 269.16392325 233.03875007 273.51255973 230.91796875 278.00195312 C229.72390532 280.6009465 228.84036825 283.26880318 228 286 C227.34 286 226.68 286 226 286 C225.77441406 286.84949219 225.54882812 287.69898438 225.31640625 288.57421875 C223.75917747 292.62671027 221.6538654 295.47045493 218.9375 298.8125 C218.19669189 299.73325317 218.19669189 299.73325317 217.44091797 300.67260742 C202.22398466 319.33946421 180.99453392 332.90590026 157 337 C154.94266727 337.07905625 152.88304487 337.10779825 150.82421875 337.09765625 C149.25933716 337.09390991 149.25933716 337.09390991 147.6628418 337.09008789 C146.350979 337.08098389 145.03911621 337.07187988 143.6875 337.0625 C137.4071875 337.0315625 137.4071875 337.0315625 131 337 C131 349.21 131 361.42 131 374 C134.16722656 373.95359375 137.33445312 373.9071875 140.59765625 373.859375 C143.67893879 373.82814382 146.76020343 373.80387627 149.84155273 373.78027344 C151.97639918 373.76020818 154.111191 373.73294942 156.24584961 373.69824219 C159.32158925 373.64950057 162.39659969 373.62697994 165.47265625 373.609375 C166.42084732 373.58872986 167.36903839 373.56808472 168.34596252 373.54681396 C174.43059335 373.54477231 178.03494847 374.40923734 183 378 C184.25325076 380.50650152 184.34705187 382.45104917 184.5 385.25 C184.5721875 386.18328125 184.644375 387.1165625 184.71875 388.078125 C183.78292877 391.88244174 182.21336512 393.27743708 179.23025703 395.71628761 C174.96012126 398.17413265 170.46361156 397.82334658 165.65209961 397.76049805 C164.52930099 397.76940567 163.40650238 397.77831329 162.24967957 397.78749084 C158.54997096 397.80874628 154.85200911 397.78648017 151.15234375 397.76171875 C148.5759717 397.76322141 145.99960012 397.76665204 143.42323303 397.77192688 C138.02889201 397.7762564 132.63519588 397.76006046 127.2409668 397.72729492 C121.01438559 397.68978506 114.78874979 397.6915905 108.56211847 397.7143361 C102.55787513 397.73531971 96.55407437 397.72789781 90.54980659 397.70801735 C88.0009276 397.70216943 85.45202183 397.70346707 82.90315056 397.71204185 C79.34099716 397.72003546 75.78048478 397.69578442 72.21850586 397.6628418 C71.16638916 397.67139191 70.11427246 397.67994202 69.03027344 397.68875122 C64.44977863 397.61566313 61.04653112 397.55539883 57.36134338 394.64607239 C54.01202648 390.89289738 53.36935603 387.37972 53.49658203 382.46998596 C54.29638681 378.54579832 56.56613972 376.90428164 59.58129883 374.43795776 C63.81362798 371.92176823 67.81620296 372.13217345 72.625 372.31640625 C73.61250244 372.32631088 74.60000488 372.33621552 75.61743164 372.34642029 C78.74651739 372.38535414 81.87198947 372.47313515 85 372.5625 C87.13145946 372.59764107 89.26297436 372.62957515 91.39453125 372.65820312 C96.59883839 372.7290789 101.79541533 372.86605848 107 373 C107 361.12 107 349.24 107 337 C103.7 337 100.4 337 97 337 C94.18565156 336.55160334 91.55814073 336.06455203 88.8125 335.375 C88.08691895 335.19606201 87.36133789 335.01712402 86.61376953 334.83276367 C68.59053317 330.18078311 52.81461961 321.43527971 39 309 C38.17113281 308.26523437 37.34226562 307.53046875 36.48828125 306.7734375 C29.00092406 299.74448993 23.50568539 291.59589144 18 283 C17.42306396 282.12601562 17.42306396 282.12601562 16.83447266 281.234375 C10.60446991 271.73258017 7.49912058 261.98009132 4.65087891 251.06787109 C4.09263417 249.01051356 4.09263417 249.01051356 3.02874565 247.39066792 C1.5387532 243.92812384 1.25645385 240.39653463 0.88919067 236.68144226 C0.80488206 235.8455166 0.72057345 235.00959094 0.63371003 234.14833421 C-0.31712312 223.80674849 -0.26445479 213.47285646 -0.22705078 203.09692383 C-0.22648515 200.86754868 -0.22680619 198.63817315 -0.22793579 196.40879822 C-0.22850437 190.41834537 -0.21683116 184.42797431 -0.20278788 178.43754029 C-0.19019705 172.15422126 -0.18910348 165.87089989 -0.18673706 159.58757019 C-0.18124785 149.06137795 -0.16879662 138.53521068 -0.15087891 128.0090332 C-0.13246054 117.17732896 -0.11833338 106.34563281 -0.10986328 95.51391602 C-0.10933783 94.84384676 -0.10881239 94.17377751 -0.10827102 93.48340312 C-0.10566054 90.12114512 -0.10313322 86.75888707 -0.10064721 83.39662898 C-0.07980054 55.59773206 -0.0446725 27.79886813 0 0 Z " fill="#F8F9FA" transform="translate(222,65)"/>
<path d="M0 0 C3.14490497 2.5196847 6.24870737 5.04933834 9 8 C9 8.66 9 9.32 9 10 C8.20335937 10.04898438 7.40671875 10.09796875 6.5859375 10.1484375 C-1.38157314 10.70029395 -1.38157314 10.70029395 -9 13 C-9.33 16.96 -9.66 20.92 -10 25 C-8.515 25.495 -8.515 25.495 -7 26 C-6.56196045 26.5050708 -6.1239209 27.0101416 -5.67260742 27.53051758 C-3.26286729 29.64761374 -1.40784564 29.43127295 1.76171875 29.51171875 C3.43911133 29.56489258 3.43911133 29.56489258 5.15039062 29.61914062 C6.31763672 29.64169922 7.48488281 29.66425781 8.6875 29.6875 C9.86634766 29.72166016 11.04519531 29.75582031 12.25976562 29.79101562 C15.17308225 29.87357925 18.08609466 29.94270322 21 30 C21.78688445 32.77723925 22.11949924 35.22610077 22.09765625 38.109375 C22.09282227 39.24052734 22.09282227 39.24052734 22.08789062 40.39453125 C22.07532227 41.56048828 22.07532227 41.56048828 22.0625 42.75 C22.05798828 43.54277344 22.05347656 44.33554688 22.04882812 45.15234375 C22.03708565 47.10159508 22.01915146 49.05080738 22 51 C21.26885986 51.01458252 20.53771973 51.02916504 19.78442383 51.04418945 C16.45992629 51.1188291 13.13641533 51.21543801 9.8125 51.3125 C8.08676758 51.34633789 8.08676758 51.34633789 6.32617188 51.38085938 C5.21435547 51.41630859 4.10253906 51.45175781 2.95703125 51.48828125 C1.42526245 51.52755737 1.42526245 51.52755737 -0.13745117 51.56762695 C-3.69758049 52.10536589 -6.43289929 53.43289929 -9 56 C-9.27749077 57.96352088 -9.27749077 57.96352088 -9.3125 60.25 C-9.34988281 61.01828125 -9.38726562 61.7865625 -9.42578125 62.578125 C-8.82195321 66.01274321 -7.44748994 67.53996011 -5 70 C-1.92288417 70.77635561 -1.92288417 70.77635561 1.515625 70.70703125 C2.76601563 70.73603516 4.01640625 70.76503906 5.3046875 70.79492188 C6.60664063 70.80072266 7.90859375 70.80652344 9.25 70.8125 C10.56742187 70.83763672 11.88484375 70.86277344 13.2421875 70.88867188 C16.49446972 70.94759003 19.74726799 70.97664487 23 71 C23 78.26 23 85.52 23 93 C19.91205078 93.05607422 19.91205078 93.05607422 16.76171875 93.11328125 C14.76600608 93.16195717 12.77029443 93.21073607 10.7746582 93.26245117 C9.38870623 93.29568549 8.00261939 93.32372226 6.61645508 93.34643555 C4.62293157 93.38000617 2.62978259 93.43388 0.63671875 93.48828125 C-0.56251221 93.51446533 -1.76174316 93.54064941 -2.99731445 93.56762695 C-5.97394116 93.75869225 -5.97394116 93.75869225 -7.8828125 95.36328125 C-9.51127649 97.74903793 -9.51947058 99.83099991 -9.6875 102.6875 C-9.75324219 103.68136719 -9.81898438 104.67523438 -9.88671875 105.69921875 C-9.92410156 106.45847656 -9.96148437 107.21773438 -10 108 C-2.5731803 110.6653779 4.26834682 111.51124722 12.125 111.6875 C15.71375 111.790625 19.3025 111.89375 23 112 C23 119.26 23 126.52 23 134 C20.27169922 134.05607422 20.27169922 134.05607422 17.48828125 134.11328125 C15.0963336 134.17894256 12.70440744 134.24538984 10.3125 134.3125 C9.11431641 134.33505859 7.91613281 134.35761719 6.68164062 134.38085938 C5.52470703 134.41630859 4.36777344 134.45175781 3.17578125 134.48828125 C2.11270752 134.51446533 1.04963379 134.54064941 -0.0456543 134.56762695 C-3.66139559 135.09679626 -6.39414949 136.39414949 -9 139 C-9.23287008 140.68183948 -9.41264166 142.3712416 -9.5625 144.0625 C-9.68818359 145.44115234 -9.68818359 145.44115234 -9.81640625 146.84765625 C-9.87699219 147.55792969 -9.93757813 148.26820313 -10 149 C-9.01 149.33 -8.02 149.66 -7 150 C-6.56647217 150.5050708 -6.13294434 151.0101416 -5.6862793 151.53051758 C-3.22011793 153.67961636 -1.24975276 153.43293286 1.98046875 153.51171875 C3.14384766 153.54716797 4.30722656 153.58261719 5.50585938 153.61914062 C6.72080078 153.64169922 7.93574219 153.66425781 9.1875 153.6875 C10.41404297 153.72166016 11.64058594 153.75582031 12.90429688 153.79101562 C15.93610678 153.8735941 18.96762379 153.94271369 22 154 C22.054348 156.0622048 22.09294961 158.12482816 22.125 160.1875 C22.14820313 161.33605469 22.17140625 162.48460937 22.1953125 163.66796875 C21.55195637 174.64362435 11.94120079 187.02097387 4.14453125 194.2578125 C-2.92376682 200 -2.92376682 200 -7 200 C-7 200.66 -7 201.32 -7 202 C-22.00434017 208.11530604 -37.96370018 209.75080649 -53.39453125 203.66015625 C-65.83090509 197.93376526 -75.88645794 189.51545874 -82 177 C-82.6796875 174.17578125 -82.6796875 174.17578125 -83 172 C-83.66 172 -84.32 172 -85 172 C-89.19853234 158.35429516 -88.45448447 144.26834869 -88.43359375 130.1484375 C-88.43607718 128.12553775 -88.44042593 126.10264773 -88.44494683 124.07975161 C-88.45891148 117.73704248 -88.45749662 111.3944683 -88.44604492 105.05175781 C-88.434552 98.54297864 -88.4486772 92.03461098 -88.4754414 85.52588594 C-88.49769219 79.90080504 -88.50421538 74.27585245 -88.49836498 68.65073073 C-88.49501879 65.30697725 -88.49899978 61.96369718 -88.51461601 58.61994553 C-88.52958901 54.89004078 -88.51880251 51.16103021 -88.50170898 47.43115234 C-88.51137695 46.34614944 -88.52104492 45.26114655 -88.53100586 44.14326477 C-88.38464281 28.79567846 -81.76611181 16.33629889 -71.40625 5.3203125 C-52.24666345 -13.1550031 -21.62502206 -15.93803971 0 0 Z " fill="#183D6F" transform="translate(372,136)"/>
<path d="M0 0 C16.00428467 -0.14082631 32.0083651 -0.24628929 48.0131216 -0.31087303 C55.44621564 -0.34167175 62.87892235 -0.38358004 70.31176758 -0.45263672 C76.79830672 -0.51287223 83.28456508 -0.55125047 89.77137619 -0.56453097 C93.1989712 -0.57228126 96.62576371 -0.59019254 100.05309868 -0.63438034 C124.68103821 -0.91653534 143.84695182 2.85548747 162.33447266 20.23583984 C169.66529942 27.41073897 175.97116307 35.07214561 179 45 C179.804375 46.7325 179.804375 46.7325 180.625 48.5 C185.5437936 61.02056553 185.50033539 80.38158821 180.43969727 92.72558594 C178.78811246 96.25371344 176.98528576 99.64914475 175 103 C174.40703125 104.02351563 173.8140625 105.04703125 173.203125 106.1015625 C170.61306358 110.24309636 170.61306358 110.24309636 169 112 C168.34 112 167.68 112 167 112 C166.98018066 111.23558594 166.96036133 110.47117187 166.93994141 109.68359375 C167.52601955 83.94449644 167.52601955 83.94449644 160 60 C159.38125 58.3603125 159.38125 58.3603125 158.75 56.6875 C151.84463353 40.28725463 135.96166917 28.57022444 120 22 C101.43372104 15.32935695 79.058619 15.50341621 60.97265625 23.53125 C47.46326882 30.20605903 35.78314036 39.97260465 28 53 C27.27444198 55.19330817 27.27444198 55.19330817 27 57 C26.34 57 25.68 57 25 57 C24.56968003 58.52811404 24.56968003 58.52811404 24.13066673 60.08709908 C23.44285968 62.50131956 22.71568637 64.88691959 21.9489994 67.27860832 C19.39588178 75.45072525 18.41368824 82.7617007 18.45068359 91.29736328 C18.44046173 92.54499954 18.43023987 93.7926358 18.41970825 95.07807922 C18.39689278 98.45691273 18.39173315 101.83475537 18.39683485 105.21359491 C18.3989988 108.05814837 18.38914513 110.90261485 18.37962401 113.74714935 C18.3575461 120.47375379 18.35649285 127.20013481 18.36865234 133.92675781 C18.38070291 140.80817527 18.35615953 147.68877186 18.31351221 154.57004941 C18.27797826 160.52818412 18.26632484 166.48606124 18.27278769 172.44429767 C18.27636859 175.98064166 18.2716041 179.51640109 18.24335861 183.05264664 C18.1034916 202.18450133 18.59182823 221.96998165 30.25 238.125 C30.95769531 239.15633057 30.95769531 239.15633057 31.6796875 240.20849609 C43.34305274 256.75628535 60.09427333 267.32442821 80 271 C84.69698696 271.41689829 89.34929383 271.4656921 94.0625 271.4375 C95.25166016 271.45748047 96.44082031 271.47746094 97.66601562 271.49804688 C105.57494478 271.4937037 111.77628001 270.16825874 119 267 C120.47893198 266.41607191 121.95805962 265.8326388 123.4375 265.25 C142.31209739 256.67991253 155.70525603 241.21574671 163 222 C167.2394913 210.34587635 166.56040024 197.97535131 166.6875 185.75 C166.72072424 183.54034495 166.75521849 181.33070861 166.79101562 179.12109375 C166.87533305 173.74752415 166.94392324 168.37393465 167 163 C176.74677813 167.61855077 182.18930338 178.4399052 185.75 188.125 C191.82017051 205.37504152 191.0334912 227.60556761 183.33447266 244.24462891 C173.58237628 263.9771316 159.22566631 277.36511384 138.5625 284.875 C136.38401513 285.61059229 134.19638792 286.31972619 132 287 C130.98107666 287.34530762 129.96215332 287.69061523 128.91235352 288.04638672 C124.34512719 289.33809798 119.86579305 289.28719165 115.1484375 289.265625 C113.74460312 289.26849518 113.74460312 289.26849518 112.31240845 289.27142334 C110.33733857 289.27277943 108.3622596 289.26912335 106.38720703 289.26074219 C103.40506282 289.25010721 100.423531 289.26061964 97.44140625 289.2734375 C69.2010283 289.29736352 46.67347245 281.99963951 26 262 C17.08440582 252.65255673 8.64128029 240.75593795 5.54296875 228.05078125 C5.02925502 225.78346352 5.02925502 225.78346352 3.4375 223.125 C-1.54118587 212.30176985 -0.27217112 199.18729498 -0.22705078 187.54394531 C-0.2264858 185.49294032 -0.22680493 183.44193493 -0.22793579 181.39093018 C-0.2285069 175.85459133 -0.21679189 170.3183401 -0.20278788 164.78202152 C-0.19024005 158.98446668 -0.18910683 153.18690958 -0.18673706 147.38934326 C-0.18053417 136.42494016 -0.16413952 125.46057721 -0.14403808 114.49619174 C-0.12164194 102.00764399 -0.11067632 89.51909426 -0.10064721 77.03053141 C-0.0797722 51.3536654 -0.04461947 25.67683495 0 0 Z " fill="#193F70" transform="translate(247,90)"/>
<path d="M0 0 C8.3840625 -0.0928125 8.3840625 -0.0928125 16.9375 -0.1875 C18.68281006 -0.21481201 20.42812012 -0.24212402 22.22631836 -0.27026367 C31.54498647 -0.35602513 39.65292165 -0.31345975 47.5625 5.375 C51.07725358 9.28246347 50.7585929 13.90496694 50.53515625 18.91796875 C49.76082738 23.37742481 48.44706558 25.12744535 45 28 C44.34 28 43.68 28 43 28 C43 28.66 43 29.32 43 30 C43.721875 30.226875 44.44375 30.45375 45.1875 30.6875 C48.57685109 32.26919718 50.5424688 34.20114502 53 37 C53.92350727 39.77052181 54.16329585 41.56688758 54.1875 44.4375 C54.20167969 45.19933594 54.21585938 45.96117187 54.23046875 46.74609375 C53.84096545 50.55530399 52.70420606 52.3979973 49.79296875 54.88671875 C48.93316406 55.48097656 48.07335937 56.07523438 47.1875 56.6875 C46.33542969 57.28949219 45.48335937 57.89148438 44.60546875 58.51171875 C39.48779002 61.4350105 34.17766443 61.13576019 28.41796875 61.09765625 C27.69565063 61.09664917 26.97333252 61.09564209 26.22912598 61.09460449 C23.54856768 61.08939952 20.86803213 61.07543837 18.1875 61.0625 C12.185625 61.041875 6.18375 61.02125 0 61 C0 40.87 0 20.74 0 0 Z " fill="#F3F5F7" transform="translate(82,528)"/>
<path d="M0 0 C3.96 0 7.92 0 12 0 C12 7.92 12 15.84 12 24 C12.66 24 13.32 24 14 24 C14.33 23.01 14.66 22.02 15 21 C20.52086081 17.82844166 25.69622053 17.01356655 32 18 C38.95088438 20.3033122 43.88033719 23.96492201 48 30 C49.68010978 33.36021957 49.18459558 37.12097812 49.1875 40.8125 C49.19974609 41.62009766 49.21199219 42.42769531 49.22460938 43.25976562 C49.24248045 50.5332913 47.60567359 54.97137261 42.671875 60.3515625 C36.45514373 66.48114334 31.13199104 66.46155995 22.62109375 66.53125 C18.27300244 65.89334232 16.42058165 64.65635308 13 62 C12.67 63.32 12.34 64.64 12 66 C8.04 66 4.08 66 0 66 C0 44.22 0 22.44 0 0 Z " fill="#F0F3F5" transform="translate(457,523)"/>
<path d="M0 0 C5.91200848 2.00464656 9.35791005 5.18454263 12.1574707 10.68188477 C13.75531261 14.5603513 13.92582703 18.25248471 13.83203125 22.40625 C13.82778641 23.12881485 13.82354156 23.8513797 13.81916809 24.59584045 C13.80252668 26.87809318 13.76490498 29.15942558 13.7265625 31.44140625 C13.71149673 32.9993361 13.69781166 34.55727995 13.68554688 36.11523438 C13.65267132 39.91180682 13.6009934 43.70770112 13.5390625 47.50390625 C9.5790625 47.50390625 5.6190625 47.50390625 1.5390625 47.50390625 C1.2090625 46.18390625 0.8790625 44.86390625 0.5390625 43.50390625 C-0.0178125 43.86484375 -0.5746875 44.22578125 -1.1484375 44.59765625 C-6.63351485 47.93317626 -10.0488098 49.31814469 -16.4609375 48.50390625 C-21.41151854 47.23684712 -25.23560405 45.63233307 -28.4609375 41.50390625 C-29.91099511 37.15373341 -29.9636098 33.04981226 -29.4609375 28.50390625 C-26.89826601 23.59211922 -22.53394374 21.34952041 -17.4609375 19.50390625 C-14.26729016 19.06434618 -11.17641482 19.11774597 -7.9609375 19.25390625 C-6.72730469 19.28097656 -6.72730469 19.28097656 -5.46875 19.30859375 C-3.46562946 19.35517795 -1.46311929 19.42689926 0.5390625 19.50390625 C-0.98649716 14.69267778 -0.98649716 14.69267778 -4.4609375 11.50390625 C-6.54154175 11.38033445 -8.62670083 11.32830258 -10.7109375 11.31640625 C-12.38929688 11.29513672 -12.38929688 11.29513672 -14.1015625 11.2734375 C-17.53858334 11.50923312 -20.25624195 12.27543962 -23.4609375 13.50390625 C-26.4609375 7.87890625 -26.4609375 7.87890625 -26.4609375 4.50390625 C-25.83445313 4.22675781 -25.20796875 3.94960938 -24.5625 3.6640625 C-23.74523437 3.30183594 -22.92796875 2.93960938 -22.0859375 2.56640625 C-21.27382812 2.20675781 -20.46171875 1.84710937 -19.625 1.4765625 C-13.3911522 -1.32529328 -6.75868006 -1.36246408 0 0 Z " fill="#EEF1F4" transform="translate(209.4609375,541.49609375)"/>
<path d="M0 0 C6.24405775 3.54647389 10.59324112 7.99066086 12.8984375 14.90625 C12.8984375 18.53625 12.8984375 22.16625 12.8984375 25.90625 C1.3484375 25.90625 -10.2015625 25.90625 -22.1015625 25.90625 C-19.1015625 33.90625 -19.1015625 33.90625 -14.1015625 35.90625 C-9.09143057 36.22435361 -5.66538804 36.12648945 -1.1015625 33.90625 C0.56510417 33.23958333 2.23177083 32.57291667 3.8984375 31.90625 C6.4609375 34.15625 6.4609375 34.15625 8.8984375 36.90625 C8.7373459 39.48371566 8.23448932 40.57456249 6.39453125 42.390625 C1.29528363 45.52564631 -3.28831045 46.37606829 -9.2265625 46.40625 C-9.89502197 46.41237305 -10.56348145 46.41849609 -11.25219727 46.42480469 C-18.15451571 46.25137533 -24.24647983 43.88582197 -29.1015625 38.90625 C-34.71861817 31.21623331 -36.39204174 24.3484694 -35.1015625 14.90625 C-33.8515625 11.40625 -33.8515625 11.40625 -32.1015625 8.90625 C-31.5034375 8.04 -30.9053125 7.17375 -30.2890625 6.28125 C-22.66567015 -1.99557598 -10.44761555 -3.68429768 0 0 Z " fill="#F2F4F6" transform="translate(549.1015625,543.09375)"/>
<path d="M0 0 C3.86133489 2.38802267 5.67452587 3.76511266 7.05029297 8.26367188 C7.989588 12.3444061 8.1666417 16.21142977 8.1328125 20.40625 C8.1299826 21.10520386 8.12715271 21.80415771 8.12423706 22.52429199 C8.1131727 24.72471316 8.08809606 26.92470493 8.0625 29.125 C8.05245235 30.63020239 8.04332965 32.13541126 8.03515625 33.640625 C8.01327893 37.30221938 7.97884696 40.96356768 7.9375 44.625 C4.3075 44.625 0.6775 44.625 -3.0625 44.625 C-3.0718457 43.7371582 -3.08119141 42.84931641 -3.09082031 41.93457031 C-3.13490681 38.63154081 -3.19654746 35.32979993 -3.27001953 32.02734375 C-3.29819611 30.59973063 -3.31942727 29.17196247 -3.33349609 27.74414062 C-3.35497392 25.68799668 -3.40163974 23.63370998 -3.453125 21.578125 C-3.47407227 20.34223633 -3.49501953 19.10634766 -3.51660156 17.83300781 C-4.15424063 14.0858802 -5.10837681 12.92940962 -8.0625 10.625 C-10.45793821 9.4272809 -12.20219954 9.3197375 -14.875 9.1875 C-16.15310547 9.09662109 -16.15310547 9.09662109 -17.45703125 9.00390625 C-20.50734676 9.73104293 -22.18464395 10.85814693 -24.07836914 13.37182617 C-26.39723928 18.68089402 -25.85239382 24.79776343 -25.875 30.5 C-25.89816531 31.86983111 -25.92353488 33.23962681 -25.95117188 34.609375 C-26.00995415 37.9482084 -26.0463023 41.2857331 -26.0625 44.625 C-29.6925 44.625 -33.3225 44.625 -37.0625 44.625 C-37.0625 29.445 -37.0625 14.265 -37.0625 -1.375 C-33.4325 -1.375 -29.8025 -1.375 -26.0625 -1.375 C-26.0625 -0.055 -26.0625 1.265 -26.0625 2.625 C-25.52625 2.17125 -24.99 1.7175 -24.4375 1.25 C-17.13298263 -3.74782768 -7.73583227 -4.22975345 0 0 Z " fill="#F6F8F9" transform="translate(274.0625,543.375)"/>
<path d="M0 0 C0.7437085 0.00580078 1.48741699 0.01160156 2.25366211 0.01757812 C7.86591205 0.1500206 12.44645805 1.1152726 17.625 3.375 C16.635 6.345 15.645 9.315 14.625 12.375 C8.875 11.5 8.875 11.5 6.625 10.375 C4.81458207 10.27867103 3.00047247 10.24518467 1.1875 10.25 C0.21941406 10.24742187 -0.74867188 10.24484375 -1.74609375 10.2421875 C-4.48517829 10.26286027 -4.48517829 10.26286027 -7.375 11.375 C-7.375 13.025 -7.375 14.675 -7.375 16.375 C-3.08056808 18.90048198 1.77973675 19.63991454 6.60546875 20.61132812 C11.80902129 21.79217197 14.94022887 23.45029029 18.625 27.375 C19.24609375 29.9453125 19.24609375 29.9453125 19.0625 32.5 C19.01996094 33.34820313 18.97742188 34.19640625 18.93359375 35.0703125 C18.35493414 39.39194759 17.10358903 41.31320146 13.8125 44.0625 C8.49047869 47.69254922 3.81723275 48.04692805 -2.4375 48.0625 C-3.27579346 48.06918701 -4.11408691 48.07587402 -4.9777832 48.08276367 C-11.16731111 47.9065084 -15.91650456 46.24291145 -21.375 43.375 C-20.8770163 39.64012223 -20.50008244 37.56262365 -18.375 34.375 C-17.158125 34.87 -15.94125 35.365 -14.6875 35.875 C-8.6762713 37.90426829 -2.65639585 37.84362638 3.625 37.375 C4.615 36.88 4.615 36.88 5.625 36.375 C5.625 34.725 5.625 33.075 5.625 31.375 C4.5525 31.106875 3.48 30.83875 2.375 30.5625 C1.65054687 30.37558594 0.92609375 30.18867187 0.1796875 29.99609375 C-1.65925108 29.54901235 -3.51041478 29.15117803 -5.3671875 28.78515625 C-15.84909057 26.57637618 -15.84909057 26.57637618 -19.44140625 22.3125 C-21.46024488 18.12277631 -21.25480223 13.85399318 -20.375 9.375 C-18.32987909 4.92596503 -14.80008714 2.79838501 -10.3527832 0.98144531 C-6.91451851 -0.0728257 -3.57121676 -0.06751034 0 0 Z " fill="#EFF2F4" transform="translate(313.375,541.625)"/>
<path d="M0 0 C3.45227896 2.77427628 3.45227896 2.77427628 4.88671875 4.50390625 C4.88671875 5.49390625 4.88671875 6.48390625 4.88671875 7.50390625 C3.61980368 8.17798933 2.34801126 8.84291122 1.07421875 9.50390625 C0.36652344 9.87515625 -0.34117187 10.24640625 -1.0703125 10.62890625 C-3.11328125 11.50390625 -3.11328125 11.50390625 -6.11328125 11.50390625 C-6.11328125 10.51390625 -6.11328125 9.52390625 -6.11328125 8.50390625 C-11.43739489 6.10226803 -16.34059053 5.62846817 -22.11328125 6.50390625 C-25.01011993 8.70550365 -26.50625356 10.28985087 -28.11328125 13.50390625 C-28.78595373 18.76036122 -28.8686465 23.12865316 -25.73828125 27.56640625 C-22.87208383 30.920953 -22.87208383 30.920953 -18.87109375 31.63671875 C-17.56785156 31.63285156 -17.56785156 31.63285156 -16.23828125 31.62890625 C-15.37460937 31.63148438 -14.5109375 31.6340625 -13.62109375 31.63671875 C-11.27480182 31.5124603 -9.32672312 31.28598905 -7.11328125 30.50390625 C-5.82891391 28.52012955 -5.82891391 28.52012955 -5.11328125 26.50390625 C-1.62788208 27.14935054 0.91490932 28.60525022 3.88671875 30.50390625 C3.59732777 33.86084162 3.24207499 35.18039196 0.70703125 37.48828125 C-0.18242187 38.0709375 -1.071875 38.65359375 -1.98828125 39.25390625 C-2.87257813 39.846875 -3.756875 40.43984375 -4.66796875 41.05078125 C-10.23146194 44.35688264 -16.32599402 44.27225366 -22.55859375 43.0078125 C-27.74915852 41.45064307 -31.32353875 39.38608149 -35.11328125 35.50390625 C-36.48828125 32.69140625 -36.48828125 32.69140625 -37.11328125 30.50390625 C-37.77328125 30.50390625 -38.43328125 30.50390625 -39.11328125 30.50390625 C-41.65006938 23.75604983 -42.46995951 16.43893722 -40.53125 9.38671875 C-37.43530737 3.25138038 -31.2293281 -1.87033018 -25.23828125 -4.99609375 C-15.57826246 -6.54169676 -8.07685778 -5.71799728 0 0 Z " fill="#EFF2F4" transform="translate(379.11328125,546.49609375)"/>
<path d="M0 0 C3.96 0 7.92 0 12 0 C12.33 1.32 12.66 2.64 13 4 C13.928125 3.01 13.928125 3.01 14.875 2 C19.39567104 -0.89322946 22.69182397 -0.28310272 28 0 C28 3.3 28 6.6 28 10 C25.49348958 10.42317708 22.98697917 10.84635417 20.48046875 11.26953125 C17.76353184 12.06963708 16.70779042 12.77502384 15 15 C13.87816292 18.36551123 13.79199032 21.09060232 13.68359375 24.63671875 C13.64169922 25.93544922 13.59980469 27.23417969 13.55664062 28.57226562 C13.51683013 29.94400761 13.47711784 31.31575244 13.4375 32.6875 C13.39429165 34.07097645 13.35067661 35.45444027 13.30664062 36.83789062 C13.20042035 40.22513714 13.09969312 43.61255509 13 47 C8.71 47 4.42 47 0 47 C0 31.49 0 15.98 0 0 Z " fill="#E8EDF0" transform="translate(393,542)"/>
<path d="M0 0 C0 3.63 0 7.26 0 11 C-2.0728125 11.12375 -2.0728125 11.12375 -4.1875 11.25 C-8.53099547 11.72197037 -10.89254134 12.79543326 -14 16 C-15.44962183 18.89924366 -15.22126481 21.52300355 -15.31640625 24.7578125 C-15.33718735 25.42086395 -15.35796844 26.08391541 -15.37937927 26.76705933 C-15.44479231 28.88626694 -15.50372105 31.005599 -15.5625 33.125 C-15.60569309 34.56121081 -15.64930764 35.99740902 -15.69335938 37.43359375 C-15.80046499 40.95559594 -15.90175575 44.47773825 -16 48 C-19.96 48 -23.92 48 -28 48 C-28 32.49 -28 16.98 -28 1 C-24.37 1 -20.74 1 -17 1 C-17 2.65 -17 4.3 -17 6 C-16.52949219 5.65066406 -16.05898437 5.30132813 -15.57421875 4.94140625 C-14.95160156 4.48636719 -14.32898438 4.03132812 -13.6875 3.5625 C-13.07261719 3.11003906 -12.45773438 2.65757812 -11.82421875 2.19140625 C-7.96707925 -0.32771055 -4.47211376 -0.0843795 0 0 Z " fill="#EDF1F3" transform="translate(175,541)"/>
<path d="M0 0 C0 3.63 0 7.26 0 11 C-1.546875 11.226875 -3.09375 11.45375 -4.6875 11.6875 C-9.62815135 12.41212886 -11.82069094 14.16236236 -15 18 C-15.77227812 21.26868785 -15.77227812 21.26868785 -15.70703125 24.83203125 C-15.73603516 26.12431641 -15.76503906 27.41660156 -15.79492188 28.74804688 C-15.8013102 30.10286219 -15.80716288 31.45768013 -15.8125 32.8125 C-15.83565748 34.1868884 -15.86102545 35.56124144 -15.88867188 36.93554688 C-15.94753342 40.29065515 -15.98382337 43.64445874 -16 47 C-19.96 47 -23.92 47 -28 47 C-28 31.82 -28 16.64 -28 1 C-24.37 1 -20.74 1 -17 1 C-17 2.65 -17 4.3 -17 6 C-16.443125 5.566875 -15.88625 5.13375 -15.3125 4.6875 C-9.89628625 0.73512781 -6.70190868 -0.73111731 0 0 Z " fill="#F1F4F5" transform="translate(600,541)"/>
<path d="M0 0 C4.34185083 0.05659768 6.77596125 1.5086536 10.125 4.3125 C13.4840945 8.08847496 13.69228327 10.84746135 13.546875 15.76953125 C12.88541401 19.75667112 11.07196716 22.58267779 8.125 25.3125 C3.73292541 28.04718795 -0.85280625 28.11833012 -5.875 27.3125 C-10.00434885 24.21548837 -12.50890534 20.86360171 -13.24609375 15.7265625 C-13.4475448 7.26561833 -13.4475448 7.26561833 -10.625 3.6875 C-6.70862286 0.30517429 -5.09965207 0.41126226 0 0 Z " fill="#1D4371" transform="translate(481.875,551.6875)"/>
<path d="M0 0 C3.96 0 7.92 0 12 0 C12 15.51 12 31.02 12 47 C8.04 47 4.08 47 0 47 C0 31.49 0 15.98 0 0 Z " fill="#ECF0F3" transform="translate(431,542)"/>
<path d="M0 0 C3.54213083 -0.08118636 7.08238743 -0.14059277 10.625 -0.1875 C11.62402344 -0.21263672 12.62304688 -0.23777344 13.65234375 -0.26367188 C19.20418061 -0.31882257 23.22743965 -0.18942949 28 3 C30 5 30 5 30.375 8.375 C30 12 30 12 28.125 14.375 C24.71499678 16.98264952 22.80594541 17.12003129 18.5546875 17.09765625 C16.94013672 17.09282227 16.94013672 17.09282227 15.29296875 17.08789062 C14.16503906 17.07951172 13.03710938 17.07113281 11.875 17.0625 C10.73933594 17.05798828 9.60367188 17.05347656 8.43359375 17.04882812 C5.62237353 17.03701628 2.81118028 17.01908041 0 17 C0 11.39 0 5.78 0 0 Z " fill="#234A79" transform="translate(93,562)"/>
<path d="M0 0 C3.27088814 -0.02693321 6.54155522 -0.04680664 9.8125 -0.0625 C10.74126953 -0.07087891 11.67003906 -0.07925781 12.62695312 -0.08789062 C13.51962891 -0.09111328 14.41230469 -0.09433594 15.33203125 -0.09765625 C16.56530151 -0.10551147 16.56530151 -0.10551147 17.82348633 -0.11352539 C20 0 20 0 23 1 C25.50849392 4.04602833 26 5.64134627 26 9.625 C25 13 25 13 23.08203125 14.69921875 C18.6066929 16.58804976 14.48836512 16.31982066 9.6875 16.1875 C8.29047852 16.16719727 8.29047852 16.16719727 6.86523438 16.14648438 C4.57657288 16.1112742 2.28821071 16.05747134 0 16 C0 10.72 0 5.44 0 0 Z " fill="#1F4574" transform="translate(94,537)"/>
<path d="M0 0 C1.74216797 0.04060547 1.74216797 0.04060547 3.51953125 0.08203125 C4.39996094 0.11683594 5.28039062 0.15164063 6.1875 0.1875 C6.67665663 6.54653614 6.67665663 6.54653614 4.375 9.5625 C0.29102451 12.59631036 -3.90827548 12.73922526 -8.8125 12.1875 C-10.8125 11.0625 -10.8125 11.0625 -11.8125 9.1875 C-12.3125 6.1875 -12.3125 6.1875 -11.8125 3.1875 C-7.91710048 0.08707997 -4.88416694 -0.14800506 0 0 Z " fill="#204777" transform="translate(203.8125,568.8125)"/>
<path d="M0 0 C2.0625 2.375 2.0625 2.375 3.0625 8.375 C-4.1975 8.375 -11.4575 8.375 -18.9375 8.375 C-18.9375 3.375 -18.9375 3.375 -17.1875 1.125 C-12.21704611 -2.74090858 -5.45194317 -3.01596856 0 0 Z " fill="#1D4575" transform="translate(545.9375,552.625)"/>
<path d="M0 0 C2.4375 1.0625 2.4375 1.0625 4 3 C4.57491549 6.95254396 4.61372366 9.07941451 2.375 12.4375 C-0.71685231 14.47161336 -2.36367425 14.60605429 -6 14 C-8.375 12.4375 -8.375 12.4375 -10 10 C-10.42519574 6.53769185 -10.63902633 4.1652833 -8.9375 1.0625 C-5.87116726 -0.61903731 -3.42486249 -0.36051184 0 0 Z " fill="#EEF1F3" transform="translate(440,521)"/>
<path d="M0 0 C3.01884775 3.01884775 2.9753819 5.24462154 3.11352539 9.48339844 C3.11336809 10.85873412 3.10777949 12.23407656 3.09765625 13.609375 C3.0962413 14.33618469 3.09482635 15.06299438 3.09336853 15.81182861 C3.08778792 18.12459494 3.07523904 20.43726312 3.0625 22.75 C3.05748249 24.32161318 3.05292002 25.89322789 3.04882812 27.46484375 C3.03782485 31.30993343 3.02057361 35.1549501 3 39 C-0.96 39 -4.92 39 -9 39 C-9.33 37.02 -9.66 35.04 -10 33 C-9.01 33 -8.02 33 -7 33 C-7 34.32 -7 35.64 -7 37 C-4.36 37 -1.72 37 1 37 C0.67 24.79 0.34 12.58 0 0 Z " fill="#B2BFCD" transform="translate(220,550)"/>
<path d="M0 0 C0.66 0.33 1.32 0.66 2 1 C1.06027344 1.88751953 1.06027344 1.88751953 0.1015625 2.79296875 C-0.71570313 3.58316406 -1.53296875 4.37335937 -2.375 5.1875 C-3.18710937 5.96480469 -3.99921875 6.74210938 -4.8359375 7.54296875 C-8.61564484 11.83436932 -9.25523735 15.70443313 -9.625 21.3125 C-9.69976563 22.38113281 -9.77453125 23.44976563 -9.8515625 24.55078125 C-9.90054688 25.35902344 -9.94953125 26.16726563 -10 27 C-10.33 27 -10.66 27 -11 27 C-11.4046979 16.89754136 -10.91532332 10.75354433 -4 3 C-1.75 1.1875 -1.75 1.1875 0 0 Z " fill="#B7C2CF" transform="translate(525,544)"/>
<path d="M0 0 C0.66 0.33 1.32 0.66 2 1 C-3.28 6.28 -8.56 11.56 -14 17 C-14.66 16.67 -15.32 16.34 -16 16 C-14.27538679 14.07906479 -12.54557391 12.163278 -10.8125 10.25 C-10.32974609 9.71117187 -9.84699219 9.17234375 -9.34960938 8.6171875 C-6.43837795 5.41287909 -3.47293499 2.6158121 0 0 Z " fill="#D0D8E0" transform="translate(295,120)"/>
<path d="M0 0 C0.5775 0.226875 1.155 0.45375 1.75 0.6875 C0.6053125 1.3371875 0.6053125 1.3371875 -0.5625 2 C-3.21286253 3.52502358 -3.21286253 3.52502358 -4.9375 5.375 C-5.370625 5.808125 -5.80375 6.24125 -6.25 6.6875 C-6.91 6.6875 -7.57 6.6875 -8.25 6.6875 C-6.65594781 2.8352072 -4.57967475 -0.63606594 0 0 Z " fill="#517094" transform="translate(168.25,552.3125)"/>
</svg>
