<?xml version="1.0" encoding="UTF-8"?>
<svg version="1.1" xmlns="http://www.w3.org/2000/svg" width="1024" height="1024">
<path d="M0 0 C337.92 0 675.84 0 1024 0 C1024 337.92 1024 675.84 1024 1024 C686.08 1024 348.16 1024 0 1024 C0 686.08 0 348.16 0 0 Z " fill="#FDFEFE" transform="translate(0,0)"/>
<path d="M0 0 C19.47282438 -0.14079625 38.94554402 -0.24627531 58.41877365 -0.31087303 C67.46262482 -0.34167774 76.50615786 -0.38359857 85.54980469 -0.45263672 C93.44161251 -0.51285262 101.33318971 -0.55124612 109.22522092 -0.56453097 C113.39564435 -0.57228424 117.56540862 -0.59021773 121.73561859 -0.63438034 C155.7527806 -0.98038911 155.7527806 -0.98038911 172 6 C172.74243706 6.31820835 173.48487411 6.6364167 174.24980927 6.96426773 C199.4792658 17.99393737 216.90471589 37.74497668 227.25 63.05859375 C235.76870613 86.64162948 233.5163378 112.57509055 223 135 C218.91483576 143.25223654 211.67815556 156.66092222 203 161 C204.11263578 164.33790735 204.90490039 164.97187624 207.5625 167.125 C224.04342828 181.19264949 235.71014266 202.332765 238 224 C239.5802548 255.46218592 233.50603223 281.23776046 212.5 305.3125 C195.75584566 323.18255438 173.01107279 335.74915218 148.20751953 337.15869141 C142.44928614 337.31894274 136.76989843 337.16368506 131 337 C131 348.88 131 360.76 131 373 C134.10664062 372.96519531 137.21328125 372.93039062 140.4140625 372.89453125 C143.43244508 372.87111578 146.45081744 372.8529105 149.46923828 372.83520508 C151.56238353 372.82014531 153.65549736 372.79969329 155.74853516 372.77368164 C158.76212328 372.73717499 161.77529312 372.72024527 164.7890625 372.70703125 C165.72054108 372.69154739 166.65201965 372.67606354 167.61172485 372.66011047 C172.83792143 372.65876547 176.48987073 373.04847262 181 376 C183.44340191 378.93208229 183.96659534 380.68822321 184.375 384.5 C183.8593857 389.31240009 182.27876259 391.60031287 179.07029724 395.11218262 C174.49531343 397.92517865 170.33580661 397.55868764 165.06274414 397.51757812 C163.40824501 397.52809204 163.40824501 397.52809204 161.72032166 397.53881836 C158.07501025 397.55642015 154.43047553 397.54476625 150.78515625 397.53125 C148.25076651 397.53394446 145.71637778 397.53782649 143.18199158 397.54284668 C137.86999721 397.5487449 132.55828087 397.54055078 127.24633789 397.52148438 C121.11420929 397.49972752 114.98261295 397.50675994 108.85049731 397.52879 C102.94139323 397.54916542 97.03245379 397.54696226 91.12331963 397.53526306 C88.61350874 397.53259544 86.10368426 397.53586673 83.59388924 397.54518127 C80.08444445 397.55534641 76.5760193 397.53984389 73.06665039 397.51757812 C72.03009308 397.52567505 70.99353577 397.53377197 69.92556763 397.54211426 C63.97678212 397.47223754 60.53414535 396.96300711 56 393 C53.28963166 389.02479311 53.18778067 384.64814629 54 380 C55.71368609 376.92938032 57.80901452 374.59549274 61 373 C62.48100811 372.91036153 63.96599424 372.88242075 65.44970703 372.88647461 C66.83091232 372.88658791 66.83091232 372.88658791 68.24002075 372.88670349 C69.73382767 372.89444542 69.73382767 372.89444542 71.2578125 372.90234375 C72.78509476 372.90446617 72.78509476 372.90446617 74.3432312 372.90663147 C77.60385035 372.912241 80.86440151 372.92479512 84.125 372.9375 C86.33203026 372.94251377 88.53906159 372.94707689 90.74609375 372.95117188 C96.16410994 372.96136378 101.58197862 372.98093738 107 373 C106.67 361.12 106.34 349.24 106 337 C100.72 336.34 95.44 335.68 90 335 C61.70366495 328.66279996 35.04264615 310.27107654 19.30859375 285.92578125 C13.765098 276.99714732 9.53587538 267.88866482 6 258 C5.69578125 257.21753906 5.3915625 256.43507813 5.078125 255.62890625 C-0.43748351 240.74239144 -0.42206458 225.42917676 -0.34057617 209.79492188 C-0.33972829 207.49702465 -0.34020818 205.19912661 -0.34190369 202.90122986 C-0.34275877 196.71015343 -0.3252123 190.51925402 -0.30418181 184.32821846 C-0.28533334 177.84068848 -0.28365816 171.35315372 -0.28010559 164.86560059 C-0.27186297 153.99191155 -0.25316851 143.11828732 -0.22631836 132.24462891 C-0.19871182 121.05290037 -0.17751068 109.86118938 -0.16479492 98.66943359 C-0.16400675 97.9776672 -0.16321858 97.28590081 -0.16240653 96.57317179 C-0.15849095 93.10221345 -0.15469994 89.63125499 -0.15097082 86.16029644 C-0.11995387 57.44015515 -0.06696219 28.72007913 0 0 Z " fill="#193D6E" transform="translate(393,252)"/>
<path d="M0 0 C3.57032866 2.78090926 6.91383544 5.68628413 10 9 C10 9.33 10 9.66 10 10 C9.04738281 10.02578125 8.09476563 10.0515625 7.11328125 10.078125 C5.85902344 10.13484375 4.60476563 10.1915625 3.3125 10.25 C2.07113281 10.29640625 0.82976562 10.3428125 -0.44921875 10.390625 C-4.45087589 11.07737804 -6.14066895 12.17780312 -9 15 C-10.45147903 17.90295805 -10.37239025 19.77261779 -10 23 C-8.4144387 25.95141433 -7.71129584 27.20706837 -5 29 C-0.56822979 29.89638136 3.80245065 29.88470425 8.3125 29.875 C9.53001953 29.895625 10.74753906 29.91625 12.00195312 29.9375 C15.00198568 29.98455933 17.99967407 30.00444446 21 30 C21.81434143 32.85160391 22.11881242 35.36626131 22.09765625 38.328125 C22.09282227 39.52695312 22.09282227 39.52695312 22.08789062 40.75 C22.07532227 41.9875 22.07532227 41.9875 22.0625 43.25 C22.05798828 44.09046875 22.05347656 44.9309375 22.04882812 45.796875 C22.03707961 47.86461401 22.01914522 49.93231624 22 52 C21.20303711 52.0093457 20.40607422 52.01869141 19.58496094 52.02832031 C15.97267825 52.08201498 12.36169179 52.16566608 8.75 52.25 C6.86861328 52.27126953 6.86861328 52.27126953 4.94921875 52.29296875 C3.74394531 52.32519531 2.53867187 52.35742188 1.296875 52.390625 C-0.36843262 52.4220459 -0.36843262 52.4220459 -2.06738281 52.45410156 C-5.63951272 53.11904349 -6.81491069 54.14336417 -9 57 C-10.08942951 60.99457488 -10.42137647 63.07698487 -8.6875 66.875 C-7.17274837 69.0895931 -7.17274837 69.0895931 -5 70 C-2.89625004 70.15441209 -0.78804881 70.24992639 1.3203125 70.31640625 C2.57714844 70.35830078 3.83398438 70.40019531 5.12890625 70.44335938 C6.44761719 70.48267578 7.76632812 70.52199219 9.125 70.5625 C10.46485751 70.60569512 11.80470156 70.64930973 13.14453125 70.69335938 C16.4295562 70.7997091 19.71476398 70.90038317 23 71 C23 78.26 23 85.52 23 93 C21.09734375 93.04898438 19.1946875 93.09796875 17.234375 93.1484375 C14.73956858 93.22346927 12.24477763 93.29901692 9.75 93.375 C8.49574219 93.4059375 7.24148438 93.436875 5.94921875 93.46875 C4.74394531 93.50742187 3.53867187 93.54609375 2.296875 93.5859375 C1.18666992 93.6173584 0.07646484 93.6487793 -1.06738281 93.68115234 C-3.91733394 93.99101217 -5.60867664 94.46192854 -8 96 C-10.3020949 99.22293286 -10.47510654 102.11996324 -10 106 C-8.20006226 108.69990662 -6.916227 110.5418865 -4 112 C-2.04225931 112.15378852 -0.07982648 112.24971463 1.8828125 112.31640625 C3.04941406 112.35830078 4.21601562 112.40019531 5.41796875 112.44335938 C6.64128906 112.48267578 7.86460937 112.52199219 9.125 112.5625 C10.35605469 112.60568359 11.58710937 112.64886719 12.85546875 112.69335938 C15.90350512 112.79968623 18.95173739 112.90036972 22 113 C22 119.93 22 126.86 22 134 C20.18113281 134.02578125 18.36226562 134.0515625 16.48828125 134.078125 C14.09633018 134.1344062 11.70440402 134.19175353 9.3125 134.25 C7.51522461 134.27126953 7.51522461 134.27126953 5.68164062 134.29296875 C4.52470703 134.32519531 3.36777344 134.35742188 2.17578125 134.390625 C1.11270752 134.41157227 0.04963379 134.43251953 -1.0456543 134.45410156 C-4.66843579 135.12351231 -6.36545179 136.47390711 -9 139 C-10.42662219 141.85324437 -10.31033868 143.83454549 -10 147 C-8.20006226 149.69990662 -6.916227 151.5418865 -4 153 C-2.04225931 153.15378852 -0.07982648 153.24971463 1.8828125 153.31640625 C3.04941406 153.35830078 4.21601562 153.40019531 5.41796875 153.44335938 C6.64128906 153.48267578 7.86460937 153.52199219 9.125 153.5625 C10.35605469 153.60568359 11.58710937 153.64886719 12.85546875 153.69335938 C15.90352853 153.79968704 18.9516719 153.90171781 22 154 C22.13697053 168.70150338 16.470427 181.28555924 6.39624023 191.93457031 C-4.60990604 202.86086771 -18.35072035 207.33780179 -33.5625 207.5 C-49.14437297 207.34715554 -61.51099456 201.81150155 -72.90234375 191.18359375 C-82.04647586 181.66484171 -88.08451664 169.02266174 -88.14717102 155.69602966 C-88.15432632 154.64631485 -88.16148163 153.59660004 -88.16885376 152.51507568 C-88.17154266 151.37371155 -88.17423157 150.23234741 -88.17700195 149.05639648 C-88.18357315 147.84599197 -88.19014435 146.63558746 -88.19691467 145.38850403 C-88.21662445 141.38269805 -88.22831316 137.37693207 -88.23828125 133.37109375 C-88.24233208 131.98671004 -88.2464491 130.60232651 -88.25063133 129.21794319 C-88.2696705 122.70925974 -88.28390183 116.20058751 -88.2922433 109.6918816 C-88.30199859 102.20562085 -88.32827839 94.71965711 -88.36874419 87.2335009 C-88.39902438 81.43028575 -88.41372354 75.62715515 -88.41702431 69.82386261 C-88.41936207 66.36598088 -88.42815358 62.90841686 -88.45348549 59.45062065 C-88.48135951 55.58344178 -88.47689889 51.71664525 -88.4699707 47.84936523 C-88.48278076 46.72217072 -88.49559082 45.5949762 -88.50878906 44.43362427 C-88.41245413 29.59657761 -82.39433907 16.32856123 -72.1875 5.625 C-51.55359834 -13.9113537 -23.71439417 -14.44923552 0 0 Z " fill="#FDFDFD" transform="translate(543,322)"/>
<path d="M0 0 C15.82993487 -0.07028328 31.65982716 -0.12308235 47.48987961 -0.15543652 C54.84112535 -0.17086276 62.19227378 -0.1918704 69.54345703 -0.22631836 C75.95560026 -0.25635145 82.36767296 -0.27560579 88.77988458 -0.28226548 C92.17072555 -0.28615437 95.56136488 -0.29520353 98.95214081 -0.31719017 C102.75043997 -0.33910093 106.54832708 -0.34196116 110.34667969 -0.34057617 C112.00717598 -0.35675491 112.00717598 -0.35675491 113.70121765 -0.3732605 C130.46584887 -0.30750551 145.04556003 5.53904622 158 16 C159.20849609 16.96099609 159.20849609 16.96099609 160.44140625 17.94140625 C174.03940969 29.33059695 182.41164503 46.47960767 184.21142578 64.06591797 C185.38678246 81.79737413 180.34780094 99.21181176 169 113 C168.67 113 168.34 113 168 113 C167.9906543 112.11441406 167.98130859 111.22882813 167.97167969 110.31640625 C167.62432144 84.13513007 166.43305253 61.50584559 148 41 C147.48179687 40.38898438 146.96359375 39.77796875 146.4296875 39.1484375 C136.5993017 28.33007323 119.12137951 18.73692985 104.34960938 17.83886719 C101.06629956 17.79299899 97.78360389 17.76469174 94.5 17.75 C93.37851562 17.729375 92.25703125 17.70875 91.1015625 17.6875 C80.14781235 17.63690531 70.45085089 19.69140211 60.75 24.8125 C60.0681665 25.1636084 59.38633301 25.5147168 58.68383789 25.87646484 C53.73336305 28.48060544 49.26110991 31.36344994 45 35 C44.42378906 35.43441406 43.84757812 35.86882812 43.25390625 36.31640625 C30.52011851 46.27088174 22.3345904 63.21161056 20 79 C19.90486622 80.88155657 19.85296971 82.76568618 19.83937073 84.64959717 C19.8293251 85.75091476 19.81927948 86.85223236 19.80892944 87.98692322 C19.80309845 89.18072098 19.79726746 90.37451874 19.79125977 91.60449219 C19.78147598 92.87367996 19.7716922 94.14286774 19.76161194 95.45051575 C19.73034969 99.64927153 19.70996159 103.84804627 19.69140625 108.046875 C19.68810893 108.76454953 19.68481161 109.48222406 19.68141437 110.22164631 C19.65061885 117.00884909 19.62394993 123.79605678 19.60699558 130.58330917 C19.58516611 139.21671231 19.54334838 147.84948762 19.47355801 156.48264003 C19.42598715 162.5781046 19.4020178 168.67340191 19.3947987 174.76904607 C19.38988866 178.39606636 19.37526305 182.02237766 19.3350544 185.64919281 C19.06534988 211.18930223 22.37837227 231.50824925 40.6015625 250.7265625 C54.86855888 264.25000207 72.15778103 271.62301591 91.75 271.4375 C92.89452637 271.42847656 94.03905273 271.41945313 95.21826172 271.41015625 C114.21816155 271.02245814 131.89220102 264.37614777 145.3828125 250.78515625 C160.45834137 234.74209343 166.9006003 216.86112478 167.31640625 195.03125 C167.33718735 194.11033569 167.35796844 193.18942139 167.37937927 192.24060059 C167.44425118 189.32713575 167.50346682 186.41358839 167.5625 183.5 C167.60574467 181.51301263 167.64936076 179.52603331 167.69335938 177.5390625 C167.79986772 172.6927908 167.90130684 167.8464369 168 163 C169.12615442 163.94794337 170.24987271 164.89878134 171.37255859 165.85083008 C171.99858978 166.38001541 172.62462097 166.90920074 173.2696228 167.454422 C183.0165272 176.16038568 189.2960977 191.42116067 190.15234375 204.28955078 C191.07568836 227.88562225 185.92088363 247.62829366 170.1875 265.75 C157.26018423 279.45724433 138.72406239 288.12040651 119.83482361 289.11387634 C117.39216053 289.1807143 114.95130212 289.21707387 112.5078125 289.23828125 C111.60360565 289.246353 110.6993988 289.25442474 109.76779175 289.26274109 C107.85660684 289.27652026 105.94539796 289.28726975 104.03417969 289.29516602 C102.11255489 289.30661578 100.1909601 289.32695462 98.26953125 289.35668945 C82.53067539 289.59955628 67.50036164 288.53385438 53.1875 281.3125 C52.4872168 280.96856201 51.78693359 280.62462402 51.06542969 280.27026367 C29.64939629 269.39301812 13.41723461 250.37355264 5 228 C3.74098539 223.70092574 2.79336709 219.40705743 2 215 C1.837614 214.25106602 1.675228 213.50213203 1.50792122 212.73050308 C-0.44508552 202.84015131 -0.26691455 193.0367855 -0.22705078 183.00292969 C-0.22648576 181.00118516 -0.226805 178.99944021 -0.22793579 176.99769592 C-0.22850676 171.59564941 -0.21679399 166.19369273 -0.20278788 160.79166698 C-0.19023774 155.13424835 -0.18910665 149.47682738 -0.18673706 143.81939697 C-0.18053484 133.12061315 -0.16414111 122.42187047 -0.14403808 111.72310472 C-0.12163984 99.53684882 -0.11067579 87.35059089 -0.10064721 75.16431952 C-0.07977372 50.10952358 -0.04462231 25.0547641 0 0 Z " fill="#FBFBFB" transform="translate(417,276)"/>
<path d="M0 0 C5.548125 -0.0825 11.09625 -0.165 16.8125 -0.25 C19.40315308 -0.30462402 19.40315308 -0.30462402 22.04614258 -0.36035156 C30.57208829 -0.46506516 38.32439433 -0.25877095 46 4 C49.55984748 7.55984748 51.14825567 10.26452775 51.25 15.25 C51.18104569 21.38693359 48.62825915 25.23346346 45 30 C45.56589844 30.47050781 46.13179688 30.94101562 46.71484375 31.42578125 C47.44832031 32.04839844 48.18179688 32.67101562 48.9375 33.3125 C49.66839844 33.92738281 50.39929688 34.54226563 51.15234375 35.17578125 C54.06157114 38.04810512 54.19822906 40.8972167 54.3125 44.8125 C54.22715838 49.69830794 53.51785714 52.39634146 50 56 C42.91485836 60.04308083 36.59630206 61.15076358 28.515625 61.09765625 C27.7922998 61.09664917 27.06897461 61.09564209 26.32373047 61.09460449 C23.63247076 61.08938887 20.94123372 61.07542762 18.25 61.0625 C9.21625 61.0315625 9.21625 61.0315625 0 61 C0 40.87 0 20.74 0 0 Z " fill="#0A0A0B" transform="translate(252,714)"/>
<path d="M0 0 C3.96 0 7.92 0 12 0 C12.33 7.26 12.66 14.52 13 22 C15.31 20.68 17.62 19.36 20 18 C27.14299141 16.73998327 33.89613778 17.3474557 40.05859375 21.296875 C44.46970346 25.1665809 48.71498521 30.97069991 49.2734375 36.90625 C49.50297178 45.02823209 49.06793747 51.4080527 44 58 C37.1803855 64.37627436 31.96222867 65.43427642 22.734375 65.30078125 C18.01219238 64.92043809 15.6825323 63.87417155 12 61 C11.67 62.32 11.34 63.64 11 65 C7.37 65 3.74 65 0 65 C0 43.55 0 22.1 0 0 Z " fill="#090909" transform="translate(628,710)"/>
<path d="M0 0 C6.41417292 2.84531146 9.91656966 7.00022687 13.0625 13.19921875 C14.0625 16.19921875 14.0625 16.19921875 14.0625 26.19921875 C2.5125 26.19921875 -9.0375 26.19921875 -20.9375 26.19921875 C-18.68665575 32.78455372 -18.68665575 32.78455372 -15.8125 35.13671875 C-11.02206519 36.90709683 -6.45743056 37.19257022 -1.6484375 35.296875 C-0.26876755 34.59198908 1.0944525 33.85335548 2.43359375 33.07421875 C4.0625 32.19921875 4.0625 32.19921875 6.0625 32.19921875 C8.75 35.01171875 8.75 35.01171875 11.0625 38.19921875 C9.8761386 41.75830295 9.19201978 42.11219023 6 43.88671875 C-1.4672421 47.43231572 -10.6186516 47.6850189 -18.56640625 45.46484375 C-24.57345227 42.68359284 -28.92964866 38.06452886 -31.9375 32.19921875 C-34.11529593 25.26707959 -34.24569539 16.82003107 -31 10.26171875 C-24.13160605 -0.45534422 -11.81182768 -3.21997962 0 0 Z " fill="#080808" transform="translate(717.9375,728.80078125)"/>
<path d="M0 0 C3.56774937 2.88062727 6.11055612 5.86291837 7.58203125 10.27734375 C7.66684898 12.86364599 7.69801354 15.42212431 7.6796875 18.0078125 C7.67827255 18.75823318 7.6768576 19.50865387 7.67539978 20.28181458 C7.66980685 22.67619835 7.65725569 25.07048828 7.64453125 27.46484375 C7.63951533 29.08919136 7.63495259 30.71354043 7.63085938 32.33789062 C7.61983973 36.31774444 7.60257998 40.29752819 7.58203125 44.27734375 C3.95203125 44.27734375 0.32203125 44.27734375 -3.41796875 44.27734375 C-3.74796875 42.95734375 -4.07796875 41.63734375 -4.41796875 40.27734375 C-5.6709375 41.251875 -5.6709375 41.251875 -6.94921875 42.24609375 C-10.56259286 44.64652773 -13.57053935 44.8126887 -17.91796875 44.77734375 C-19.820625 44.7928125 -19.820625 44.7928125 -21.76171875 44.80859375 C-26.8417714 44.07046644 -29.97883418 41.95633409 -33.29296875 38.08984375 C-34.91087641 34.04507459 -35.32615687 30.56194095 -34.41796875 26.27734375 C-31.77560089 21.61796842 -28.60439239 18.73428265 -23.41796875 17.27734375 C-20.14195551 17.04740305 -16.88736958 17.08871256 -13.60546875 17.15234375 C-12.72181641 17.16136719 -11.83816406 17.17039062 -10.92773438 17.1796875 C-8.75769516 17.20314738 -6.58779628 17.2390151 -4.41796875 17.27734375 C-5.28675341 12.50397103 -5.28675341 12.50397103 -8.171875 8.859375 C-10.96321852 8.13605294 -13.47019365 7.97575904 -16.35546875 7.96484375 C-17.37511719 7.94808594 -18.39476562 7.93132813 -19.4453125 7.9140625 C-22.79891734 8.32389857 -24.62717209 9.43784473 -27.41796875 11.27734375 C-28.07796875 11.27734375 -28.73796875 11.27734375 -29.41796875 11.27734375 C-30.40796875 8.30734375 -31.39796875 5.33734375 -32.41796875 2.27734375 C-22.99016168 -3.34307969 -10.01899207 -6.13363131 0 0 Z " fill="#0B0B0C" transform="translate(385.41796875,730.72265625)"/>
<path d="M0 0 C3.63 0 7.26 0 11 0 C11.33 1.65 11.66 3.3 12 5 C12.41507812 4.6390625 12.83015625 4.278125 13.2578125 3.90625 C18.82935431 -0.28989028 23.76563293 -0.7463321 30.64453125 -0.48828125 C36.65092858 0.38575794 40.31606408 2.77285895 43.9375 7.5625 C45.9872785 12.26493303 46.13510488 16.52176832 46.09765625 21.609375 C46.0962413 22.33618469 46.09482635 23.06299438 46.09336853 23.81182861 C46.08778792 26.12459494 46.07523904 28.43726312 46.0625 30.75 C46.05748249 32.32161318 46.05292002 33.89322789 46.04882812 35.46484375 C46.03782485 39.30993343 46.02057361 43.1549501 46 47 C42.04 47 38.08 47 34 47 C33.99589111 46.08710205 33.99178223 45.1742041 33.98754883 44.23364258 C33.96050598 40.83165222 33.91136138 37.43144939 33.84741211 34.0300293 C33.82428007 32.56074053 33.8098476 31.09128708 33.80444336 29.62182617 C33.79511721 27.50335655 33.75405873 25.38745935 33.70703125 23.26953125 C33.6913208 21.99698486 33.67561035 20.72443848 33.65942383 19.41333008 C32.8383764 15.16339889 31.33216251 13.67374498 28 11 C24.91455909 10.14939044 22.12775002 10.37105027 19 11 C16.12970131 12.79393668 14.50868362 13.98263276 13 17 C12.84504237 19.24974161 12.74989072 21.50371536 12.68359375 23.7578125 C12.66281265 24.42086395 12.64203156 25.08391541 12.62062073 25.76705933 C12.55520769 27.88626694 12.49627895 30.005599 12.4375 32.125 C12.39430691 33.56121081 12.35069236 34.99740902 12.30664062 36.43359375 C12.19953501 39.95559594 12.09824425 43.47773825 12 47 C8.04 47 4.08 47 0 47 C0 31.49 0 15.98 0 0 Z " fill="#0C0C0C" transform="translate(407,728)"/>
<path d="M0 0 C-0.99 2.97 -1.98 5.94 -3 9 C-4.60875 8.505 -4.60875 8.505 -6.25 8 C-11.72451516 6.62646573 -17.39223321 6.41334132 -23 7 C-23.66 7.66 -24.32 8.32 -25 9 C-24.67958603 11.60280568 -24.67958603 11.60280568 -24 14 C-22.37191406 14.38091797 -22.37191406 14.38091797 -20.7109375 14.76953125 C-19.26553276 15.11680382 -17.82022535 15.46448164 -16.375 15.8125 C-15.66214844 15.97814453 -14.94929688 16.14378906 -14.21484375 16.31445312 C-2.3807662 19.19154537 -2.3807662 19.19154537 1 24 C1.8096049 28.29765269 1.94377231 32.90692275 0.12109375 36.94921875 C-3.15220847 41.23800087 -7.85820436 43.54966505 -13.10864258 44.30224609 C-15.37295575 44.43767694 -17.60690301 44.46621615 -19.875 44.4375 C-20.66567871 44.43427734 -21.45635742 44.43105469 -22.27099609 44.42773438 C-28.34241359 44.28261086 -32.71977626 43.12902148 -38 40 C-37.44271087 36.65626525 -36.64826111 33.96687001 -35 31 C-33.96875 31.495 -32.9375 31.99 -31.875 32.5 C-25.84689354 34.78353763 -19.34870901 34.62115704 -13 34 C-12.01 33.34 -11.02 32.68 -10 32 C-10.11306697 30.04105639 -10.11306697 30.04105639 -11 28 C-14.57226262 26.23623527 -17.94763224 25.62484681 -21.875 25.125 C-27.16439467 24.2912038 -30.68990365 23.18572339 -35 20 C-37.60399933 15.81248757 -37.65037974 11.79446604 -37 7 C-34.92355781 2.41452349 -32.20176321 -0.2756165 -27.66796875 -2.30859375 C-18.53422577 -4.6756106 -8.59028816 -3.68155207 0 0 Z " fill="#0A0A0A" transform="translate(501,731)"/>
<path d="M0 0 C3.25308162 2.00298912 5.94472421 4.35060138 8.375 7.3125 C8.375 8.3025 8.375 9.2925 8.375 10.3125 C3.19921875 13.53515625 3.19921875 13.53515625 1.375 14.3125 C0.385 13.9825 -0.605 13.6525 -1.625 13.3125 C-1.625 12.6525 -1.625 11.9925 -1.625 11.3125 C-6.94911364 8.91086178 -11.85230928 8.43706192 -17.625 9.3125 C-20.52183868 11.5140974 -22.01797231 13.09844462 -23.625 16.3125 C-24.15709766 21.65092242 -24.26557432 26.00847371 -21.875 30.875 C-18.63988729 34.37970544 -17.04826719 35.15137541 -12.3125 35.6875 C-7.6720005 35.2155848 -5.46092798 33.92093103 -1.625 31.3125 C-1.13 30.3225 -1.13 30.3225 -0.625 29.3125 C2.4581351 30.51149698 5.43779492 31.78950477 8.375 33.3125 C6.80252729 38.31582225 4.26098935 41.6991741 -0.37890625 44.29296875 C-7.57862027 47.39102751 -14.62192426 47.29904403 -21.9375 44.625 C-26.03374361 42.78809075 -28.79324967 40.8724147 -31.625 37.3125 C-32.0890625 36.79429687 -32.553125 36.27609375 -33.03125 35.7421875 C-37.31188761 30.24870256 -37.35496804 24.66933287 -37.10546875 17.87890625 C-36.10042553 10.41870738 -32.05062015 6.25205664 -26.46875 1.5390625 C-19.32459975 -3.21361373 -7.77835632 -3.67352583 0 0 Z " fill="#090A0A" transform="translate(545.625,729.6875)"/>
<path d="M0 0 C3.63 0 7.26 0 11 0 C11.33 1.65 11.66 3.3 12 5 C12.49628906 4.6390625 12.99257813 4.278125 13.50390625 3.90625 C18.29486975 0.63348556 21.20245406 -0.60391104 27 0 C27 3.3 27 6.6 27 10 C24.9271875 10.3403125 24.9271875 10.3403125 22.8125 10.6875 C18.25588744 11.68493173 15.96055649 13.29930438 13 17 C11.60439955 19.79120091 11.78191712 22.20205692 11.68359375 25.3203125 C11.64169922 26.57714844 11.59980469 27.83398438 11.55664062 29.12890625 C11.51732422 30.44761719 11.47800781 31.76632812 11.4375 33.125 C11.39430488 34.46485751 11.35069027 35.80470156 11.30664062 37.14453125 C11.20029019 40.42957815 11.09826192 43.71470281 11 47 C7.37 47 3.74 47 0 47 C0 31.49 0 15.98 0 0 Z " fill="#060606" transform="translate(564,728)"/>
<path d="M0 0 C0 3.3 0 6.6 0 10 C-2.0728125 10.3403125 -2.0728125 10.3403125 -4.1875 10.6875 C-8.74411256 11.68493173 -11.03944351 13.29930438 -14 17 C-15.39560045 19.79120091 -15.21808288 22.20205692 -15.31640625 25.3203125 C-15.35830078 26.57714844 -15.40019531 27.83398438 -15.44335938 29.12890625 C-15.48267578 30.44761719 -15.52199219 31.76632812 -15.5625 33.125 C-15.60569512 34.46485751 -15.64930973 35.80470156 -15.69335938 37.14453125 C-15.79970981 40.42957815 -15.90173808 43.71470281 -16 47 C-19.63 47 -23.26 47 -27 47 C-27 31.82 -27 16.64 -27 1 C-23.7 1 -20.4 1 -17 1 C-17 2.98 -17 4.96 -17 7 C-16.34 7 -15.68 7 -15 7 C-14.6596875 6.1028125 -14.6596875 6.1028125 -14.3125 5.1875 C-10.8701556 -0.54974067 -6.01776256 -0.30598793 0 0 Z " fill="#040303" transform="translate(770,728)"/>
<path d="M0 0 C0 3.3 0 6.6 0 10 C-2.0728125 10.3403125 -2.0728125 10.3403125 -4.1875 10.6875 C-8.74411256 11.68493173 -11.03944351 13.29930438 -14 17 C-15.39560045 19.79120091 -15.21808288 22.20205692 -15.31640625 25.3203125 C-15.35830078 26.57714844 -15.40019531 27.83398438 -15.44335938 29.12890625 C-15.48267578 30.44761719 -15.52199219 31.76632812 -15.5625 33.125 C-15.60569512 34.46485751 -15.64930973 35.80470156 -15.69335938 37.14453125 C-15.79970981 40.42957815 -15.90173808 43.71470281 -16 47 C-19.63 47 -23.26 47 -27 47 C-27 31.82 -27 16.64 -27 1 C-23.7 1 -20.4 1 -17 1 C-17 2.98 -17 4.96 -17 7 C-16.34 7 -15.68 7 -15 7 C-14.6596875 6.1028125 -14.6596875 6.1028125 -14.3125 5.1875 C-10.8701556 -0.54974067 -6.01776256 -0.30598793 0 0 Z " fill="#050404" transform="translate(345,728)"/>
<path d="M0 0 C3.49384502 1.22931584 5.39579206 2.33537127 7.875 5.0625 C9.98653502 10.57595255 9.75401403 15.92646142 7.75 21.4375 C5.25739939 25.08737947 3.1702572 26.60991427 -1 28 C-5.15286777 28.39177998 -7.48969587 28.25515206 -11.25 26.375 C-14.98925861 23.14564029 -16.58394587 20.54255301 -17.38671875 15.63671875 C-17.72092025 10.74252344 -17.33461064 7.75136497 -14.125 3.9375 C-9.80915247 -0.4930198 -5.98978158 -0.55460941 0 0 Z " fill="#F8F8F8" transform="translate(656,738)"/>
<path d="M0 0 C3.63 0 7.26 0 11 0 C11 15.51 11 31.02 11 47 C7.37 47 3.74 47 0 47 C0 31.49 0 15.98 0 0 Z " fill="#060506" transform="translate(602,728)"/>
<path d="M0 0 C3.89625106 -0.08098443 7.7908163 -0.14049807 11.6875 -0.1875 C12.79029297 -0.21263672 13.89308594 -0.23777344 15.02929688 -0.26367188 C16.09599609 -0.27333984 17.16269531 -0.28300781 18.26171875 -0.29296875 C19.24100342 -0.3086792 20.22028809 -0.32438965 21.22924805 -0.34057617 C24.4966933 0.06105271 26.35539654 1.07199121 29 3 C30.40457737 5.80915474 30.24895157 7.88810534 30 11 C28.22015595 14.1359157 27.47691793 14.84102736 24 16 C22.15389468 16.08239169 20.30494836 16.10743359 18.45703125 16.09765625 C17.38388672 16.09443359 16.31074219 16.09121094 15.20507812 16.08789062 C14.08552734 16.07951172 12.96597656 16.07113281 11.8125 16.0625 C10.68134766 16.05798828 9.55019531 16.05347656 8.38476562 16.04882812 C5.58982124 16.03703511 2.79490401 16.01909957 0 16 C0 10.72 0 5.44 0 0 Z " fill="#F8FAFA" transform="translate(264,749)"/>
<path d="M0 0 C3.04221065 -0.08132642 6.0822238 -0.14065374 9.125 -0.1875 C9.9809375 -0.21263672 10.836875 -0.23777344 11.71875 -0.26367188 C16.93341197 -0.32384105 20.4811298 0.09300095 25 3 C27 5 27 5 27.4375 8.375 C27 12 27 12 24.625 14.375 C21.156596 16.52210724 19.46772712 17.12321346 15.4296875 17.09765625 C14.53378906 17.09443359 13.63789063 17.09121094 12.71484375 17.08789062 C11.77769531 17.07951172 10.84054687 17.07113281 9.875 17.0625 C8.93011719 17.05798828 7.98523438 17.05347656 7.01171875 17.04882812 C4.6744523 17.03702375 2.33721831 17.01908799 0 17 C0 11.39 0 5.78 0 0 Z " fill="#F3F3F3" transform="translate(264,723)"/>
<path d="M0 0 C3.47581342 1.34943344 6.26078538 2.93938772 8.4375 6.0625 C9 8 9 8 9 11 C0.75 11 -7.5 11 -16 11 C-14.90596582 5.52982909 -14.1397533 4.43038758 -10.02734375 1.17578125 C-6.62772948 -0.79586402 -3.78376249 -0.87545877 0 0 Z " fill="#F2F3F4" transform="translate(712,737)"/>
<path d="M0 0 C0.69738281 0.01353516 1.39476562 0.02707031 2.11328125 0.04101562 C3.82585541 0.0762055 5.53802941 0.13000845 7.25 0.1875 C7.484375 6.890625 7.484375 6.890625 5.375 9.5625 C1.16487983 12.78200366 -2.59069567 12.68235335 -7.75 12.1875 C-10.3125 11.0625 -10.3125 11.0625 -11.75 9.1875 C-12.25 6.1875 -12.25 6.1875 -11.75 3.1875 C-8.37252726 -0.4714288 -4.65656351 -0.17165026 0 0 Z " fill="#F4F4F4" transform="translate(373.75,754.8125)"/>
<path d="M0 0 C2.875 1.625 2.875 1.625 5 4 C5.625 7 5.625 7 5 10 C2.9375 12.4375 2.9375 12.4375 0 14 C-3.84949295 14 -6.04133185 13.86589381 -8.9375 11.25 C-10.23370853 8.50508782 -10.52487013 6.99925788 -10 4 C-7.15925051 -0.04260504 -4.83496939 -0.78938276 0 0 Z " fill="#0F0F0F" transform="translate(610,707)"/>
<path d="M0 0 C0 3 0 3 -1.390625 4.46484375 C-2.00421875 4.95082031 -2.6178125 5.43679688 -3.25 5.9375 C-5.41272146 7.68952284 -7.36413446 9.37397593 -9.3125 11.375 C-11 13 -11 13 -13 13 C-11.44533803 8.91667098 -8.74912156 6.91791007 -5.375 4.25 C-4.37210937 3.45078125 -3.36921875 2.6515625 -2.3359375 1.828125 C-1.17964844 0.92320312 -1.17964844 0.92320312 0 0 Z " fill="#204777" transform="translate(467,306)"/>
<path d="M0 0 C0.99 0.33 1.98 0.66 3 1 C2.21625 1.70125 1.4325 2.4025 0.625 3.125 C-2.08360818 6.09157086 -3.01722715 8.1582516 -4 12 C-4.33 12 -4.66 12 -5 12 C-5.35338623 9.03155565 -5.5417682 6.84401782 -3.88671875 4.265625 C-2.64496832 2.79651181 -1.32662082 1.39295186 0 0 Z " fill="#2D507C" transform="translate(537,333)"/>
</svg>
